<svg width="16" height="16" viewBox="0 0 16 16" fill="none" xmlns="http://www.w3.org/2000/svg">
<g clip-path="url(#clip0_1_296)">
<path d="M12.1999 10C11.0999 9.9 10.4999 11.4 9.69989 11.8C8.39989 12.5 5.99989 10 5.99989 10C5.99989 10 3.49989 7.6 4.09989 6.3C4.59989 5.5 6.09989 4.9 5.99989 3.8C5.89989 2.8 3.69989 -0.800003 2.59989 0.199997C0.199891 2.4 -0.000108894 3.3 -0.000108894 5.1C-0.100109 8.2 3.89989 12.1 3.89989 12.1C4.29989 12.5 7.79989 16.1 10.8999 16C12.6999 16 13.5999 15.8 15.7999 13.4C16.7999 12.3 13.2999 10.1 12.1999 10Z" fill="#607CE6"/>
</g>
<defs>
<clipPath id="clip0_1_296">
<rect width="16" height="16" fill="white"/>
</clipPath>
</defs>
</svg>
